# xmcd CD database file
#
# Track frame offsets:
#	150
#	23328
#	44178
#	72222
#	91374
#	125190
#	149472
#
# Disc length: 2280 seconds
#
# Revision: 0
# Processed by: cddbd v1.5.1PL0 Copyright (c) Steve Scherf et al.
# Submitted via: CDex 1.51
#
DISCID=6508e607
DTITLE=Getxo Jazz Kombo - Omnibus
DYEAR=1900
DGENRE=Jazz
TTITLE0=Milestones
TTITLE1=Bolivar Blues
TTITLE2=Don't get Arround Much Any More
TTITLE3=Take the "A" train
TTITLE4=All Blues
TTITLE5=Cantaloupe island
TTITLE6=Chitlins con Carne
EXTD=
EXTT0=
EXTT1=
EXTT2=
EXTT3=
EXTT4=
EXTT5=
EXTT6=
PLAYORDER=
